<svg width="133" height="60" viewBox="0 0 133 60" fill="none" xmlns="http://www.w3.org/2000/svg">
<path d="M16.0708 21.2816C16.0708 21.2816 13.9925 22.5725 13.5293 24.695C13.0661 26.8175 13.5293 29.1416 13.5293 29.1416C13.5293 29.1416 10.27 30.5325 10.27 34.9066C10.27 39.2808 13.0194 40.5174 13.0194 40.5174C13.0194 40.5174 13.0516 45.68 16.128 48.4641C19.2044 51.2483 22.4323 51.2616 22.4323 51.2616C22.4323 51.2616 24.1111 54.9349 29.0499 54.9349C33.9888 54.9349 35.6684 51.2616 35.6684 51.2616C35.6684 51.2616 39.0114 50.7566 41.9727 48.4641C44.9339 46.1725 44.8525 40.5174 44.8525 40.5174C44.8525 40.5174 47.8307 39.2816 47.8307 34.9066C47.8307 30.5316 44.5706 29.1425 44.5706 29.1425C44.5706 29.1425 45.0354 26.8175 44.5706 24.695C44.1058 22.5725 42.029 21.2816 42.029 21.2816" fill="#B22EC8"/>
<path d="M44.6664 27.8567C44.6664 18.9242 37.6661 16.4083 29.0322 16.4083C20.3982 16.4083 13.3979 18.925 13.3979 27.8567C13.3979 36.7883 20.3982 44.03 29.0322 44.03C37.6661 44.03 44.6664 36.7883 44.6664 27.8567Z" fill="#B22EC8"/>
<path d="M29.5293 54.9233C29.5293 54.9233 33.7569 51.865 33.4805 44.8308C35.2987 42.8741 35.8626 40.245 34.2112 37.05C37.0008 32.9366 36.7108 28.4866 33.3734 25.1133C34.7485 23.06 34.0291 21.2816 32.4744 19.9458C32.4744 19.9458 36.9493 22.2158 40.3769 18.97C40.3769 18.97 47.581 24.3283 44.5706 29.1425C44.5706 29.1425 52.5247 34.7033 44.8526 40.5175C44.8526 40.5175 45.9731 49.38 35.8626 51.2258C35.8626 51.2258 33.201 54.3425 29.5293 54.9233Z" fill="#6A107A"/>
<path d="M44.9339 9.38497C41.4942 25.9908 30.9374 20.3291 29.5027 17.4091C28.0688 14.4883 29.4544 2.8608 44.9339 9.38414V9.38497Z" fill="#0F805D"/>
<path d="M13.166 9.38497C16.6057 25.9908 27.1625 20.3291 28.5972 17.4091C30.0311 14.4883 28.6456 2.8608 13.166 9.38414V9.38497Z" fill="#0F805D"/>
<path d="M44.9339 9.38497C41.4942 25.9908 30.9374 20.3291 29.5027 17.4091C28.0688 14.4883 29.4544 2.8608 44.9339 9.38414V9.38497Z" stroke="black" stroke-width="2" stroke-miterlimit="10" stroke-linecap="round" stroke-linejoin="round"/>
<path d="M36.7108 12.745C34.1894 13.7466 30.9599 15.3575 29.5293 17.4575M13.166 9.38497C16.6057 25.9908 27.1625 20.3291 28.5972 17.4091C30.0311 14.4883 28.6456 2.8608 13.166 9.38414V9.38497Z" stroke="black" stroke-width="2" stroke-miterlimit="10" stroke-linecap="round" stroke-linejoin="round"/>
<path d="M21.3891 12.745C23.9113 13.7467 27.14 15.3575 28.5706 17.4575M16.0708 21.2817C16.0708 21.2817 13.9925 22.5725 13.5293 24.695C13.0661 26.8175 13.5293 29.1417 13.5293 29.1417C13.5293 29.1417 10.27 30.5325 10.27 34.9067C10.27 39.2808 13.0194 40.5175 13.0194 40.5175C13.0194 40.5175 13.0516 45.68 16.128 48.4642C19.2044 51.2483 22.4323 51.2617 22.4323 51.2617C22.4323 51.2617 24.1111 54.935 29.0499 54.935C33.9888 54.935 35.6684 51.2617 35.6684 51.2617C35.6684 51.2617 39.0114 50.7567 41.9727 48.4642C44.9339 46.1725 44.8525 40.5175 44.8525 40.5175C44.8525 40.5175 47.8307 39.2817 47.8307 34.9067C47.8307 30.5317 44.5706 29.1425 44.5706 29.1425C44.5706 29.1425 45.0354 26.8175 44.5706 24.695C44.1058 22.5725 42.029 21.2817 42.029 21.2817" stroke="black" stroke-width="2" stroke-miterlimit="10" stroke-linecap="round" stroke-linejoin="round"/>
<path d="M34.0291 24.5625C34.0291 24.5625 31.9218 26.8683 29.3214 26.8683M24.4341 24.5625C24.4341 24.5625 26.5415 26.8683 29.1418 26.8683M40.3278 32.9367C40.3278 35.3467 38.3284 37.3 35.8626 37.3M31.2258 32.9367C31.2258 35.3467 33.2252 37.3 35.691 37.3M27.2947 32.9367C27.2947 35.3467 25.2953 37.3 22.8287 37.3M18.1919 32.9367C18.1919 35.3467 20.1913 37.3 22.6579 37.3M33.7568 44.885C32.9158 46.0425 31.2113 46.8342 29.2449 46.8342M24.4414 44.7433C25.2429 45.9767 27.0055 46.8342 29.0508 46.8342M24.4003 45.0417C24.4003 46.075 23.7808 47.0075 22.7908 47.6617M33.8052 45.0417C33.8052 46.1692 34.5406 47.175 35.691 47.8317" stroke="black" stroke-width="2" stroke-miterlimit="10" stroke-linecap="round" stroke-linejoin="round"/>
<path d="M18.8588 35.56C18.8588 37.5317 17.5208 39.1975 15.6833 39.7383M20.1485 24.5333C20.1485 27.1125 18.1491 29.2042 15.6825 29.2042M37.356 24.5333C37.356 27.1125 39.3554 29.2042 41.822 29.2042M39.6744 35.56C39.6744 37.4433 40.8956 39.0475 42.6066 39.66" stroke="black" stroke-width="2" stroke-miterlimit="10" stroke-linecap="round" stroke-linejoin="round"/>
<path d="M76.4792 45.2C75.8659 45.2 75.5059 44.8933 75.3992 44.28C75.2659 43.2667 75.1992 42.3067 75.1992 41.4C75.1192 39.3467 75.0526 37.2133 74.9992 35C74.9726 32.76 74.9592 31.1333 74.9592 30.12C74.3726 30.3867 73.9059 30.76 73.5592 31.24C73.2392 31.6933 72.9326 32.28 72.6392 33C72.1592 34.3067 71.9192 35.6 71.9192 36.88V37.88C71.9192 38.04 71.9059 38.5333 71.8792 39.36C71.8526 40.1867 71.7726 41.0933 71.6392 42.08C71.4792 43.4133 70.8126 44.4133 69.6392 45.08C69.4526 45.1867 69.2126 45.24 68.9192 45.24C68.5726 45.24 68.2792 45.16 68.0392 45C67.8259 44.8133 67.7592 44.56 67.8392 44.24C67.8926 44.0533 67.9726 43.92 68.0792 43.84C68.1859 43.76 68.3326 43.68 68.5192 43.6C68.7326 43.52 68.8926 43.44 68.9992 43.36C69.3992 42.9867 69.5992 42.48 69.5992 41.84L69.6392 38.48C69.6926 37.1733 69.7592 36.1733 69.8392 35.48C69.9192 34.76 70.1192 33.9333 70.4392 33C70.5459 32.6533 70.7992 32.1067 71.1992 31.36C71.5992 30.5867 71.8926 30.0933 72.0792 29.88C70.6659 29.1867 69.6792 28.32 69.1192 27.28C68.5859 26.24 68.3192 24.72 68.3192 22.72C68.3192 21.1467 68.5992 19.6 69.1592 18.08C69.7192 16.5867 70.6392 15.64 71.9192 15.24L73.6792 14.64C73.9192 14.5333 74.1859 14.48 74.4792 14.48C75.0392 14.48 75.6792 14.72 76.3992 15.2C76.8526 15.4667 77.0792 15.9067 77.0792 16.52C76.9192 18.76 76.8392 20.4533 76.8392 21.6V23.08V26.36V30.48C76.8392 33.3067 76.8659 35.44 76.9192 36.88C76.9459 37.9733 76.9859 38.9467 77.0392 39.8C77.0926 40.6533 77.1326 41.36 77.1592 41.92L77.2792 44.12V44.36C77.2792 44.7067 77.2259 44.9333 77.1192 45.04C77.0126 45.1467 76.7992 45.2 76.4792 45.2ZM74.7992 16.16C74.6659 16.2133 74.3592 16.32 73.8792 16.48C73.4259 16.64 73.0259 16.8267 72.6792 17.04C72.2792 17.2267 71.9059 17.6267 71.5592 18.24C71.2392 18.8267 70.9859 19.4533 70.7992 20.12C70.6126 20.7867 70.5326 21.2933 70.5592 21.64L70.6392 23.4C70.6392 24.2267 70.6526 24.88 70.6792 25.36C70.7059 26.1067 70.9192 26.7333 71.3192 27.24C71.7459 27.72 72.3326 28.0533 73.0792 28.24C73.3726 28.32 73.7059 28.44 74.0792 28.6C74.4792 28.7333 74.7726 28.84 74.9592 28.92L74.7992 16.16ZM82.4367 45.32C82.4101 45.2133 82.3567 45.0267 82.2767 44.76C82.2234 44.4933 82.2101 44.2667 82.2367 44.08C82.2901 40.9867 82.3701 38.68 82.4767 37.16C82.5034 36.6 82.5167 35.7733 82.5167 34.68C82.5167 32.7067 82.4234 30.32 82.2367 27.52C82.0767 24.1067 81.9967 21.52 81.9967 19.76C81.9967 19.36 82.1567 19 82.4767 18.68C82.7967 18.36 83.1834 18.2 83.6367 18.2C85.1567 18.2 86.4767 18.32 87.5967 18.56C88.1301 18.6667 88.4767 18.8533 88.6367 19.12C88.7967 19.36 88.8501 19.7733 88.7967 20.36C88.4234 20.6 88.0367 20.72 87.6367 20.72C87.5034 20.72 87.3034 20.6933 87.0367 20.64C86.7967 20.5867 86.1567 20.5333 85.1167 20.48H85.0367C84.6634 20.48 84.4767 20.68 84.4767 21.08C84.3434 24.9467 84.2767 27.1467 84.2767 27.68C84.3301 30.4533 84.3834 32.5467 84.4367 33.96C84.4367 34.1467 84.4501 34.3733 84.4767 34.64C84.5034 34.9067 84.5034 35.1333 84.4767 35.32C84.3967 36.5467 84.3567 37.84 84.3567 39.2C84.3567 41.4133 84.3967 42.96 84.4767 43.84C84.4501 44.4267 84.3567 44.8267 84.1967 45.04C84.0367 45.28 83.7434 45.4 83.3167 45.4C83.2101 45.4 82.9167 45.3733 82.4367 45.32ZM96.2098 45.76C95.5165 45.76 94.8765 45.5333 94.2898 45.08C93.7032 44.6533 93.2232 44.0667 92.8498 43.32C92.0765 41.6933 91.5965 39.92 91.4098 38C91.1698 36.1867 91.0498 34.44 91.0498 32.76C91.0498 32.44 91.0632 32.1733 91.0898 31.96V31.24C91.0898 31.1067 91.0765 31.04 91.0498 31.04V30.32L91.0898 27.52C91.1165 26.6667 91.2232 25.3067 91.4098 23.44C91.5432 22.16 91.8498 20.92 92.3298 19.72C92.5165 19.1867 92.7565 18.7867 93.0498 18.52C93.3432 18.2267 93.6765 18.08 94.0498 18.08C95.1165 18.08 96.0765 18.28 96.9298 18.68C97.7832 19.0533 98.5032 19.5867 99.0898 20.28C99.6232 20.9467 100.077 21.7733 100.45 22.76C100.823 23.72 101.09 24.7467 101.25 25.84C101.41 26.96 101.49 28.1467 101.49 29.4V29.72C101.49 30.5467 101.503 31.2933 101.53 31.96L101.57 34.24C101.57 41.92 99.7832 45.76 96.2098 45.76ZM96.0498 44.08C96.5298 44.08 96.9698 43.8933 97.3698 43.52C97.7698 43.12 98.0765 42.5867 98.2898 41.92C98.7965 40.56 99.1032 39.0933 99.2098 37.52C99.3432 36.16 99.4098 34.9867 99.4098 34C99.4098 32.8 99.3165 31.2267 99.1298 29.28C98.9698 27.2267 98.8898 25.6933 98.8898 24.68V23.96C98.8365 22.9467 98.4898 22.0667 97.8498 21.32C97.2365 20.5733 96.4765 20.2 95.5698 20.2C94.6632 20.2 94.0632 20.72 93.7698 21.76C93.5032 22.5867 93.3698 23.6533 93.3698 24.96C93.3698 25.4667 93.3832 25.8933 93.4098 26.24V27.32L93.3298 29.16C93.2765 29.72 93.2498 30.3333 93.2498 31C93.2498 32.44 93.2898 33.8667 93.3698 35.28C93.4765 37.28 93.7432 39.2267 94.1698 41.12C94.5965 43.0933 95.2232 44.08 96.0498 44.08ZM119.893 49.92C119.68 49.9733 119.52 50 119.413 50C119.093 50 118.866 49.8 118.733 49.4C118.626 49.08 118.573 48.68 118.573 48.2L118.613 45.44C118.613 45.28 118.6 45.1333 118.573 45C118.546 44.8667 118.52 44.7333 118.493 44.6H113.893C114.16 44.6 113.52 44.7333 111.973 45C110.453 45.24 109.266 45.4 108.413 45.48L106.613 45.64L104.613 45.84C104.613 46.08 104.613 46.3733 104.613 46.72C104.64 47.0667 104.64 47.48 104.613 47.96V48.16C104.613 48.5867 104.506 48.9067 104.293 49.12C104.08 49.3333 103.88 49.44 103.693 49.44C103.586 49.44 103.426 49.3867 103.213 49.28C102.733 48.9333 102.466 48.4533 102.413 47.84L102.293 44.92C102.24 43.88 102.666 43.36 103.573 43.36C104.08 43.3333 104.48 43.2 104.773 42.96C105.066 42.72 105.413 42.3467 105.813 41.84C106.213 41.3067 106.52 40.72 106.733 40.08C106.973 39.4133 107.2 38.6133 107.413 37.68C107.653 36.6667 107.826 35.68 107.933 34.72C108.04 33.76 108.173 32.3867 108.333 30.6C108.573 27.8 108.693 24.9867 108.693 22.16L108.653 19.92C108.653 19.4133 108.8 19 109.093 18.68C109.386 18.3333 109.786 18.16 110.293 18.16C110.453 18.16 110.573 18.1733 110.653 18.2C111.88 18.4133 112.88 18.5467 113.653 18.6H113.853C114.2 18.6 114.4 18.5333 114.453 18.4C114.693 18.08 114.986 17.92 115.333 17.92C115.573 17.92 115.786 17.9733 115.973 18.08C116.4 18.24 116.68 18.64 116.813 19.28L116.613 26.12C116.613 29.8267 116.626 32.6 116.653 34.44C116.653 35.4 116.68 36.8667 116.733 38.84L116.773 41.04C116.773 41.2533 116.786 41.4533 116.813 41.64C116.84 41.8267 116.866 42.0133 116.893 42.2C117.426 42.2533 117.826 42.28 118.093 42.28C118.306 42.28 118.466 42.2667 118.573 42.24C119.16 42.16 119.68 42.3067 120.133 42.68C120.613 43.0267 120.853 43.48 120.853 44.04C120.853 44.76 120.8 45.84 120.693 47.28C120.693 47.6533 120.666 48.1867 120.613 48.88C120.56 49.44 120.32 49.7867 119.893 49.92ZM108.373 43.56C109.866 43.4267 111.04 43.3067 111.893 43.2C112.773 43.0667 113.64 42.8667 114.493 42.6C114.76 39.3733 114.893 35.92 114.893 32.24C114.893 28.8267 114.76 25.08 114.493 21C113.8 20.9733 112.506 20.9067 110.613 20.8L110.573 22.68C110.36 26.7867 110.213 29.8533 110.133 31.88C110.026 34.92 109.506 37.9067 108.573 40.84C108.52 41 108.4 41.4 108.213 42.04C108.053 42.6533 107.8 43.1867 107.453 43.64L108.373 43.56ZM131.168 45.36C130.554 45.36 130.101 45.2667 129.808 45.08C129.514 44.8933 129.368 44.5467 129.368 44.04C129.368 43.24 129.234 41.88 128.968 39.96L128.808 39.12L124.848 38.52C124.688 39.1333 124.461 40.3733 124.168 42.24C124.008 43.5467 123.754 44.4133 123.408 44.84C123.221 45.08 122.954 45.2 122.608 45.2C122.288 45.2 121.994 45.1067 121.728 44.92C121.461 44.7067 121.328 44.4533 121.328 44.16L121.408 43.96L121.448 43.8C123.208 36.9467 124.541 30.1867 125.448 23.52C125.448 23.4133 125.461 23.24 125.488 23C125.514 22.7333 125.541 22.36 125.568 21.88C125.648 20.8933 125.728 20.1067 125.808 19.52C125.914 18.9333 126.074 18.4933 126.288 18.2H127.648C128.021 18.2 128.341 18.2933 128.608 18.48C128.874 18.64 129.008 18.88 129.008 19.2C129.008 21.2267 129.288 24.24 129.848 28.24C130.381 32.3467 130.648 35.2267 130.648 36.88C130.648 37.04 130.714 37.4533 130.848 38.12C130.981 38.7333 131.048 39.1333 131.048 39.32C131.048 39.5067 131.181 40.3067 131.448 41.72C131.688 43 131.808 43.8267 131.808 44.2V44.24C131.808 44.8267 131.594 45.2 131.168 45.36ZM128.528 37.68C128.448 37.28 128.408 36.7867 128.408 36.2C128.408 33.8 128.194 30.7333 127.768 27L127.368 22.84C126.221 29.1067 125.434 33.84 125.008 37.04C125.408 37.3067 126.581 37.52 128.528 37.68Z" fill="#0F805D"/>
</svg>
